<?xml version="1.0" encoding="UTF-8" standalone="no"?>
<!-- Created with Inkscape (http://www.inkscape.org/) -->

<svg
   xmlns:dc="http://purl.org/dc/elements/1.1/"
   xmlns:cc="http://creativecommons.org/ns#"
   xmlns:rdf="http://www.w3.org/1999/02/22-rdf-syntax-ns#"
   xmlns:svg="http://www.w3.org/2000/svg"
   xmlns="http://www.w3.org/2000/svg"
   xmlns:sodipodi="http://sodipodi.sourceforge.net/DTD/sodipodi-0.dtd"
   xmlns:inkscape="http://www.inkscape.org/namespaces/inkscape"
   width="79.023338mm"
   height="82.110497mm"
   viewBox="0 0 79.023337 82.110489"
   version="1.1"
   id="svg2858"
   inkscape:version="0.92.4 5da689c313, 2019-01-14"
   sodipodi:docname="g00-FAB_Soldado_Segunda_classe.svg">
  <defs
     id="defs2852" />
  <sodipodi:namedview
     id="base"
     pagecolor="#ffffff"
     bordercolor="#666666"
     borderopacity="1.0"
     inkscape:pageopacity="0.0"
     inkscape:pageshadow="2"
     inkscape:zoom="1.5273626"
     inkscape:cx="149.33544"
     inkscape:cy="155.16944"
     inkscape:document-units="mm"
     inkscape:current-layer="layer1"
     showgrid="false"
     fit-margin-top="0"
     fit-margin-left="0"
     fit-margin-right="0"
     fit-margin-bottom="0"
     inkscape:window-width="1366"
     inkscape:window-height="695"
     inkscape:window-x="0"
     inkscape:window-y="0"
     inkscape:window-maximized="1"
     inkscape:snap-global="false"
     inkscape:snap-object-midpoints="true"
     inkscape:snap-midpoints="true"
     inkscape:snap-bbox="true"
     inkscape:object-paths="true"
     inkscape:snap-intersection-paths="true"
     inkscape:snap-smooth-nodes="true" />
  <metadata
     id="metadata2855">
    <rdf:RDF>
      <cc:Work
         rdf:about="">
        <dc:format>image/svg+xml</dc:format>
        <dc:type
           rdf:resource="http://purl.org/dc/dcmitype/StillImage" />
        <dc:title />
      </cc:Work>
    </rdf:RDF>
  </metadata>
  <g
     inkscape:label="Camada 1"
     inkscape:groupmode="layer"
     id="layer1"
     transform="translate(-119.23836,-99.84187)">
    <path
       style="fill:#073955;fill-opacity:1;stroke:none;stroke-width:3.05956697;stroke-miterlimit:4;stroke-dasharray:none"
       d="m 120.72231,100.90021 -0.006,49.39103 38.03075,29.3517 38.03075,-29.3517 3.2e-4,-49.39103 z"
       id="path1099"
       inkscape:connector-curvature="0"
       sodipodi:nodetypes="cccccc" />
    <path
       inkscape:connector-curvature="0"
       id="path72-8"
       d="m 119.23868,99.84187 v 2.95899 l -3.2e-4,48.6588 39.50767,30.49271 0.87385,-0.66559 38.64156,-29.82712 2.6e-4,-48.6588 v -2.95899 z m 2.96054,2.95899 h 73.10355 l -3.2e-4,47.04701 -36.55539,28.20758 -36.54816,-28.20758 z"
       style="color:#000000;font-style:normal;font-variant:normal;font-weight:normal;font-stretch:normal;font-size:medium;line-height:normal;font-family:sans-serif;font-variant-ligatures:normal;font-variant-position:normal;font-variant-caps:normal;font-variant-numeric:normal;font-variant-alternates:normal;font-feature-settings:normal;text-indent:0;text-align:start;text-decoration:none;text-decoration-line:none;text-decoration-style:solid;text-decoration-color:#000000;letter-spacing:normal;word-spacing:normal;text-transform:none;writing-mode:lr-tb;direction:ltr;text-orientation:mixed;dominant-baseline:auto;baseline-shift:baseline;text-anchor:start;white-space:normal;shape-padding:0;clip-rule:nonzero;display:inline;overflow:visible;visibility:visible;opacity:1;isolation:auto;mix-blend-mode:normal;color-interpolation:sRGB;color-interpolation-filters:linearRGB;solid-color:#000000;solid-opacity:1;vector-effect:none;fill:#0f2b3b;fill-opacity:1;fill-rule:nonzero;stroke:none;stroke-width:0.1;stroke-linecap:butt;stroke-linejoin:miter;stroke-miterlimit:4;stroke-dasharray:none;stroke-dashoffset:0;stroke-opacity:1;color-rendering:auto;image-rendering:auto;shape-rendering:auto;text-rendering:auto;enable-background:accumulate"
       sodipodi:nodetypes="ccccccccccccccc" />
    <g
       id="g1092"
       style="stroke:#0f2b3b;stroke-opacity:1;stroke-width:0.3;stroke-miterlimit:4;stroke-dasharray:none">
      <g
         id="g1020"
         style="stroke:#0f2b3b;stroke-opacity:1;stroke-width:0.3;stroke-miterlimit:4;stroke-dasharray:none">
        <polygon
           id="polygon2368"
           points="180825,12001 189829,8590 195183,6563 196588,9477 196447,12751 77896,59271 71753,62067 65427,66060 59102,72848 55308,83429 50609,83030 47807,81533 47717,83829 22521,101252 5208,112650 3020,110785 2062,108311 3689,100998 2794,86077 3079,84427 43199,66060 51851,65685 56068,64186 60548,56475 180623,12078 "
           class="fil0 str0"
           style="font-style:normal;font-weight:normal;font-size:41.69139862px;line-height:1.25;font-family:sans-serif;letter-spacing:0px;word-spacing:0px;clip-rule:evenodd;fill:#ffffff;fill-opacity:1;fill-rule:evenodd;stroke:#0f2b3b;stroke-width:1184.48645265;stroke-miterlimit:4;stroke-dasharray:none;stroke-opacity:1;image-rendering:optimizeQuality;shape-rendering:geometricPrecision;text-rendering:geometricPrecision"
           transform="matrix(2.5487801e-4,0,0,2.5168072e-4,133.28312,119.69016)" />
        <path
           id="path2370"
           d="m 139.37674,144.62744 c -0.0454,-0.0858 -0.001,0.11099 0.11878,0.33625 0.0604,0.113 0.13967,0.2328 0.23652,0.32844 0.23831,0.23431 0.63822,0.24715 0.63822,0.24715 l 0.63337,-0.0315 0.68766,-1.18617 0.43992,-1.43659 -2.75472,1.74263 v -2.5e-4 z"
           class="fil0 str0"
           inkscape:connector-curvature="0"
           style="font-style:normal;font-weight:normal;font-size:41.69139862px;line-height:1.25;font-family:sans-serif;letter-spacing:0px;word-spacing:0px;clip-rule:evenodd;fill:#ffffff;fill-opacity:1;fill-rule:evenodd;stroke:#0f2b3b;stroke-width:0.3;stroke-miterlimit:4;stroke-dasharray:none;stroke-opacity:1;image-rendering:optimizeQuality;shape-rendering:geometricPrecision;text-rendering:geometricPrecision" />
        <path
           id="path2372"
           d="m 141.49605,144.26905 -0.86658,1.00244 2.21667,0.83231 1.97199,0.36116 c 0,0 2.53324,0.10999 2.67724,0.0783 0.14401,-0.0315 1.92892,-0.28263 1.92892,-0.28263 l 6.00238,-2.08845 3.33966,-1.63316 4.17414,-2.88929 c 0.41826,-0.28943 3.14545,-2.38191 3.14545,-2.38191 l 5.03078,-4.05633 3.39039,-3.66221 0.8411,-1.55111 -1.69902,0.35865 -0.39685,1.05429 -1.79077,2.08844 -3.10594,1.91429 -4.35051,3.65994 -5.23928,3.83158 -3.55605,2.1028 -3.92895,1.50882 -4.26079,0.87912 -3.05166,-0.25143 -2.47257,-0.8771 z"
           class="fil0 str0"
           inkscape:connector-curvature="0"
           style="font-style:normal;font-weight:normal;font-size:41.69139862px;line-height:1.25;font-family:sans-serif;letter-spacing:0px;word-spacing:0px;clip-rule:evenodd;fill:#ffffff;fill-opacity:1;fill-rule:evenodd;stroke:#0f2b3b;stroke-width:0.3;stroke-miterlimit:4;stroke-dasharray:none;stroke-opacity:1;image-rendering:optimizeQuality;shape-rendering:geometricPrecision;text-rendering:geometricPrecision" />
        <polygon
           id="polygon2374"
           points="68589,64063 73371,68659 189096,20409 189589,15442 94696,52023 72816,61583 "
           class="fil0 str0"
           style="font-style:normal;font-weight:normal;font-size:41.69139862px;line-height:1.25;font-family:sans-serif;letter-spacing:0px;word-spacing:0px;clip-rule:evenodd;fill:#ffffff;fill-opacity:1;fill-rule:evenodd;stroke:#0f2b3b;stroke-width:1184.48645265;stroke-miterlimit:4;stroke-dasharray:none;stroke-opacity:1;image-rendering:optimizeQuality;shape-rendering:geometricPrecision;text-rendering:geometricPrecision"
           transform="matrix(2.5487801e-4,0,0,2.5168072e-4,133.28312,119.69016)" />
        <polygon
           id="polygon2376"
           points="158199,34474 158234,33403 159504,30142 159504,24152 157923,18787 159730,15792 163570,16167 165466,17682 165873,24813 165038,33012 "
           class="fil0 str0"
           style="font-style:normal;font-weight:normal;font-size:41.69139862px;line-height:1.25;font-family:sans-serif;letter-spacing:0px;word-spacing:0px;clip-rule:evenodd;fill:#ffffff;fill-opacity:1;fill-rule:evenodd;stroke:#0f2b3b;stroke-width:1184.48645265;stroke-miterlimit:4;stroke-dasharray:none;stroke-opacity:1;image-rendering:optimizeQuality;shape-rendering:geometricPrecision;text-rendering:geometricPrecision"
           transform="matrix(2.5487801e-4,0,0,2.5168072e-4,133.28312,119.69016)" />
        <polygon
           id="polygon2378"
           points="196634,84385 196858,85281 194763,89353 194763,95966 197134,109380 196044,111628 193520,112749 188325,108381 153311,84923 151504,79931 146308,82676 143823,82926 139306,72194 134561,66205 123041,60215 116037,57720 2637,12798 2157,8461 5320,5966 10544,8555 19354,12048 139531,55224 142468,64209 148341,66891 155796,65457 "
           class="fil0 str0"
           style="font-style:normal;font-weight:normal;font-size:41.69139862px;line-height:1.25;font-family:sans-serif;letter-spacing:0px;word-spacing:0px;clip-rule:evenodd;fill:#ffffff;fill-opacity:1;fill-rule:evenodd;stroke:#0f2b3b;stroke-width:1184.48645265;stroke-miterlimit:4;stroke-dasharray:none;stroke-opacity:1;image-rendering:optimizeQuality;shape-rendering:geometricPrecision;text-rendering:geometricPrecision"
           transform="matrix(2.5487801e-4,0,0,2.5168072e-4,133.28312,119.69016)" />
        <polygon
           id="polygon2380"
           points="10910,21688 124405,66048 128800,63210 123041,60215 8714,15205 "
           class="fil0 str0"
           style="font-style:normal;font-weight:normal;font-size:41.69139862px;line-height:1.25;font-family:sans-serif;letter-spacing:0px;word-spacing:0px;clip-rule:evenodd;fill:#ffffff;fill-opacity:1;fill-rule:evenodd;stroke:#0f2b3b;stroke-width:1184.48645265;stroke-miterlimit:4;stroke-dasharray:none;stroke-opacity:1;image-rendering:optimizeQuality;shape-rendering:geometricPrecision;text-rendering:geometricPrecision"
           transform="matrix(2.5487801e-4,0,0,2.5168072e-4,133.28312,119.69016)" />
        <polygon
           id="polygon2382"
           points="35430,33261 34196,31081 34264,21985 34151,17742 36296,15870 40362,15996 41944,18989 41265,33932 "
           class="fil0 str0"
           style="font-style:normal;font-weight:normal;font-size:41.69139862px;line-height:1.25;font-family:sans-serif;letter-spacing:0px;word-spacing:0px;clip-rule:evenodd;fill:#ffffff;fill-opacity:1;fill-rule:evenodd;stroke:#0f2b3b;stroke-width:1184.48645265;stroke-miterlimit:4;stroke-dasharray:none;stroke-opacity:1;image-rendering:optimizeQuality;shape-rendering:geometricPrecision;text-rendering:geometricPrecision"
           transform="matrix(2.5487801e-4,0,0,2.5168072e-4,133.28312,119.69016)" />
        <polygon
           id="polygon2410"
           points="63519,81818 67923,79449 71029,73325 71178,69574 70033,63064 68049,64125 69760,72335 67614,76671 62418,79853 56496,80112 55308,83429 "
           class="fil0 str0"
           style="font-style:normal;font-weight:normal;font-size:41.69139862px;line-height:1.25;font-family:sans-serif;letter-spacing:0px;word-spacing:0px;clip-rule:evenodd;fill:#ffffff;fill-opacity:1;fill-rule:evenodd;stroke:#0f2b3b;stroke-width:1184.48645265;stroke-miterlimit:4;stroke-dasharray:none;stroke-opacity:1;image-rendering:optimizeQuality;shape-rendering:geometricPrecision;text-rendering:geometricPrecision"
           transform="matrix(2.5487801e-4,0,0,2.5168072e-4,133.28312,119.69016)" />
        <polygon
           id="polygon2412"
           points="171547,102884 150148,106760 132528,105012 123041,101519 111972,96028 103162,91536 90964,83300 82153,77311 72807,70655 61936,61589 47252,50108 36579,39001 35430,33261 41078,33761 41971,38835 51965,48433 60548,56475 83998,73942 97740,82802 118071,94032 133149,100036 144162,102143 155796,100021 166590,96843 "
           class="fil0 str0"
           style="font-style:normal;font-weight:normal;font-size:41.69139862px;line-height:1.25;font-family:sans-serif;letter-spacing:0px;word-spacing:0px;clip-rule:evenodd;fill:#ffffff;fill-opacity:1;fill-rule:evenodd;stroke:#0f2b3b;stroke-width:1184.48645265;stroke-miterlimit:4;stroke-dasharray:none;stroke-opacity:1;image-rendering:optimizeQuality;shape-rendering:geometricPrecision;text-rendering:geometricPrecision"
           transform="matrix(2.5487801e-4,0,0,2.5168072e-4,133.28312,119.69016)" />
        <path
           id="path2414"
           d="m 148.84725,137.49431 0.19345,0.95085 0.57908,0.43691 0.36371,-0.13842 -0.44629,-0.35336 -0.16542,-0.41628 c 0,0 -0.0288,-0.26703 -0.0288,-0.34531 0,-0.0783 -0.0872,-0.56754 -0.0872,-0.56754 l -0.40857,0.4334 z"
           class="fil0 str0"
           inkscape:connector-curvature="0"
           style="font-style:normal;font-weight:normal;font-size:41.69139862px;line-height:1.25;font-family:sans-serif;letter-spacing:0px;word-spacing:0px;clip-rule:evenodd;fill:#ffffff;fill-opacity:1;fill-rule:evenodd;stroke:#0f2b3b;stroke-width:0.3;stroke-miterlimit:4;stroke-dasharray:none;stroke-opacity:1;image-rendering:optimizeQuality;shape-rendering:geometricPrecision;text-rendering:geometricPrecision" />
        <path
           id="path2416"
           d="m 165.93478,136.54421 0.20696,1.1303 0.144,0.81645 0.47484,0.84791 0.77713,0.51821 1.18034,0.43969 0.9354,0.10999 0.18147,-0.0919 -0.2011,-0.4719 -0.91603,-0.0644 c 0,0 -0.53269,-0.15705 -0.69097,-0.25143 -0.15828,-0.0944 -0.56507,-0.14925 -0.62242,-0.22752 -0.0573,-0.0783 -0.46413,-0.48499 -0.46413,-0.48499 l -0.26635,-0.54388 -0.15471,-0.38859 c 0,0 -0.1045,-0.67904 -0.09,-0.75781 0.0143,-0.0783 0.11673,-1.3027 0.11673,-1.3027 l -0.43507,-0.22325 -0.17663,0.94532 h 2.5e-4 z"
           class="fil0 str0"
           inkscape:connector-curvature="0"
           style="font-style:normal;font-weight:normal;font-size:41.69139862px;line-height:1.25;font-family:sans-serif;letter-spacing:0px;word-spacing:0px;clip-rule:evenodd;fill:#ffffff;fill-opacity:1;fill-rule:evenodd;stroke:#0f2b3b;stroke-width:0.3;stroke-miterlimit:4;stroke-dasharray:none;stroke-opacity:1;image-rendering:optimizeQuality;shape-rendering:geometricPrecision;text-rendering:geometricPrecision" />
        <path
           id="path2418"
           d="m 167.96998,137.45882 -0.0298,0.57106 -0.31554,0.44548 -0.23041,0.21971 0.33822,0.18826 0.35963,-0.28264 c 0,0 0.28063,-0.47114 0.28063,-0.54941 0,-0.0783 0.0217,-0.64783 0.0217,-0.64783 l -0.46872,-0.61964 0.0441,0.67476 h 2.6e-4 z"
           class="fil0 str0"
           inkscape:connector-curvature="0"
           style="font-style:normal;font-weight:normal;font-size:41.69139862px;line-height:1.25;font-family:sans-serif;letter-spacing:0px;word-spacing:0px;clip-rule:evenodd;fill:#ffffff;fill-opacity:1;fill-rule:evenodd;stroke:#0f2b3b;stroke-width:0.3;stroke-miterlimit:4;stroke-dasharray:none;stroke-opacity:1;image-rendering:optimizeQuality;shape-rendering:geometricPrecision;text-rendering:geometricPrecision" />
        <polygon
           id="polygon2420"
           points="166590,96843 170478,103765 175387,99714 167585,94487 "
           class="fil0 str0"
           style="font-style:normal;font-weight:normal;font-size:41.69139862px;line-height:1.25;font-family:sans-serif;letter-spacing:0px;word-spacing:0px;clip-rule:evenodd;fill:#ffffff;fill-opacity:1;fill-rule:evenodd;stroke:#0f2b3b;stroke-width:1184.48645265;stroke-miterlimit:4;stroke-dasharray:none;stroke-opacity:1;image-rendering:optimizeQuality;shape-rendering:geometricPrecision;text-rendering:geometricPrecision"
           transform="matrix(2.5487801e-4,0,0,2.5168072e-4,133.28312,119.69016)" />
        <polygon
           id="polygon2422"
           points="188401,3904 179345,12550 189829,8590 "
           class="fil0 str0"
           style="font-style:normal;font-weight:normal;font-size:41.69139862px;line-height:1.25;font-family:sans-serif;letter-spacing:0px;word-spacing:0px;clip-rule:evenodd;fill:#ffffff;fill-opacity:1;fill-rule:evenodd;stroke:#0f2b3b;stroke-width:1184.48645265;stroke-miterlimit:4;stroke-dasharray:none;stroke-opacity:1;image-rendering:optimizeQuality;shape-rendering:geometricPrecision;text-rendering:geometricPrecision"
           transform="matrix(2.5487801e-4,0,0,2.5168072e-4,133.28312,119.69016)" />
        <polygon
           id="polygon2424"
           points="12922,4777 19354,12048 9987,8279 "
           class="fil0 str0"
           style="font-style:normal;font-weight:normal;font-size:41.69139862px;line-height:1.25;font-family:sans-serif;letter-spacing:0px;word-spacing:0px;clip-rule:evenodd;fill:#ffffff;fill-opacity:1;fill-rule:evenodd;stroke:#0f2b3b;stroke-width:1184.48645265;stroke-miterlimit:4;stroke-dasharray:none;stroke-opacity:1;image-rendering:optimizeQuality;shape-rendering:geometricPrecision;text-rendering:geometricPrecision"
           transform="matrix(2.5487801e-4,0,0,2.5168072e-4,133.28312,119.69016)" />
        <polygon
           id="polygon2442"
           points="24826,100324 34038,94399 34716,92158 23908,99083 "
           class="fil1 str0"
           style="font-style:normal;font-weight:normal;font-size:41.69139862px;line-height:1.25;font-family:sans-serif;letter-spacing:0px;word-spacing:0px;clip-rule:evenodd;fill:#ffffff;fill-opacity:1;fill-rule:evenodd;stroke:#0f2b3b;stroke-width:1184.48645265;stroke-miterlimit:4;stroke-dasharray:none;stroke-opacity:1;image-rendering:optimizeQuality;shape-rendering:geometricPrecision;text-rendering:geometricPrecision"
           transform="matrix(2.5487801e-4,0,0,2.5168072e-4,133.28312,119.69016)" />
        <polygon
           id="polygon2444"
           points="167585,94487 167274,95223 174076,100796 175387,99714 "
           class="fil1 str0"
           style="font-style:normal;font-weight:normal;font-size:41.69139862px;line-height:1.25;font-family:sans-serif;letter-spacing:0px;word-spacing:0px;clip-rule:evenodd;fill:#ffffff;fill-opacity:1;fill-rule:evenodd;stroke:#0f2b3b;stroke-width:1184.48645265;stroke-miterlimit:4;stroke-dasharray:none;stroke-opacity:1;image-rendering:optimizeQuality;shape-rendering:geometricPrecision;text-rendering:geometricPrecision"
           transform="matrix(2.5487801e-4,0,0,2.5168072e-4,133.28312,119.69016)" />
        <polygon
           id="polygon2446"
           points="158805,33038 159046,32944 165296,30487 165038,33012 158372,34437 158234,33403 "
           class="fil0 str0"
           style="font-style:normal;font-weight:normal;font-size:41.69139862px;line-height:1.25;font-family:sans-serif;letter-spacing:0px;word-spacing:0px;clip-rule:evenodd;fill:#ffffff;fill-opacity:1;fill-rule:evenodd;stroke:#0f2b3b;stroke-width:1184.48645265;stroke-miterlimit:4;stroke-dasharray:none;stroke-opacity:1;image-rendering:optimizeQuality;shape-rendering:geometricPrecision;text-rendering:geometricPrecision"
           transform="matrix(2.5487801e-4,0,0,2.5168072e-4,133.28312,119.69016)" />
      </g>
      <g
         transform="matrix(3.7000062,0,0,3.7000062,-119.0236,-391.97306)"
         style="fill:#ffffff;stroke:#0f2b3b;stroke-opacity:1;stroke-width:0.08108095;stroke-miterlimit:4;stroke-dasharray:none"
         id="g1065">
        <path
           style="fill:#ffffff;fill-opacity:1;stroke:#0f2b3b;stroke-width:0.08108095;stroke-miterlimit:4;stroke-dasharray:none;stroke-dashoffset:0;stroke-opacity:1"
           d="m 74.129518,143.86931 -0.818536,0.48989 -0.163523,0.37052 h 2.018471 2.018469 l -0.163522,-0.37052 -0.818075,-0.48989 H 75.16593 Z"
           id="rect1035"
           inkscape:connector-curvature="0" />
        <path
           style="fill:#ffffff;fill-opacity:1;stroke:#0f2b3b;stroke-width:0.08108095;stroke-miterlimit:4;stroke-dasharray:none;stroke-dashoffset:0;stroke-opacity:1"
           d="m 73.965533,140.51603 0.163985,3.35328 h 1.036412 1.036872 l 0.163523,-3.35328 H 75.16593 Z"
           id="rect1037"
           inkscape:connector-curvature="0" />
        <path
           style="fill:#ffffff;fill-opacity:1;stroke:#0f2b3b;stroke-width:0.08108095;stroke-miterlimit:4;stroke-dasharray:none;stroke-dashoffset:0;stroke-opacity:1"
           d="m 75.16593,138.14718 -2.018471,2.36885 h 2.018471 2.018469 z"
           id="rect1041"
           inkscape:connector-curvature="0" />
        <path
           inkscape:connector-curvature="0"
           style="fill:#ffffff;fill-opacity:1;stroke:#0f2b3b;stroke-width:0.30644767;stroke-miterlimit:4;stroke-dasharray:none;stroke-dashoffset:0;stroke-opacity:1"
           d="m -166.57227,157.12695 c -0.95213,0 -1.71875,0.76662 -1.71875,1.71875 v 7.46485 c 0,0.0314 0.008,0.0608 0.01,0.0918 h 1.70898 1.70899 c 0.002,-0.031 0.01,-0.0603 0.01,-0.0918 v -7.46485 c 0,-0.95213 -0.76661,-1.71875 -1.71875,-1.71875 z"
           transform="matrix(0.26458333,0,0,0.26458333,119.23836,99.84187)"
           id="rect1056" />
      </g>
    </g>
  </g>
</svg>
