<?xml version="1.0" encoding="UTF-8" standalone="no"?>
<!-- Created with Inkscape (http://www.inkscape.org/) -->

<svg
   xmlns:dc="http://purl.org/dc/elements/1.1/"
   xmlns:cc="http://creativecommons.org/ns#"
   xmlns:rdf="http://www.w3.org/1999/02/22-rdf-syntax-ns#"
   xmlns:svg="http://www.w3.org/2000/svg"
   xmlns="http://www.w3.org/2000/svg"
   xmlns:sodipodi="http://sodipodi.sourceforge.net/DTD/sodipodi-0.dtd"
   xmlns:inkscape="http://www.inkscape.org/namespaces/inkscape"
   width="79.023811mm"
   height="82.110489mm"
   viewBox="0 0 79.023811 82.110489"
   version="1.1"
   id="svg2858"
   inkscape:version="0.92.4 5da689c313, 2019-01-14"
   sodipodi:docname="g02-FAB_Cabo.svg">
  <defs
     id="defs2852" />
  <sodipodi:namedview
     id="base"
     pagecolor="#ffffff"
     bordercolor="#666666"
     borderopacity="1.0"
     inkscape:pageopacity="0.0"
     inkscape:pageshadow="2"
     inkscape:zoom="1.5273627"
     inkscape:cx="149.33634"
     inkscape:cy="155.16943"
     inkscape:document-units="mm"
     inkscape:current-layer="layer1"
     showgrid="false"
     fit-margin-top="0"
     fit-margin-left="0"
     fit-margin-right="0"
     fit-margin-bottom="0"
     inkscape:window-width="1366"
     inkscape:window-height="695"
     inkscape:window-x="0"
     inkscape:window-y="0"
     inkscape:window-maximized="1"
     inkscape:snap-midpoints="true"
     inkscape:object-paths="true"
     inkscape:snap-intersection-paths="true"
     inkscape:snap-object-midpoints="true"
     inkscape:snap-center="false"
     inkscape:snap-global="true" />
  <metadata
     id="metadata2855">
    <rdf:RDF>
      <cc:Work
         rdf:about="">
        <dc:format>image/svg+xml</dc:format>
        <dc:type
           rdf:resource="http://purl.org/dc/dcmitype/StillImage" />
        <dc:title></dc:title>
      </cc:Work>
    </rdf:RDF>
  </metadata>
  <g
     inkscape:label="Camada 1"
     inkscape:groupmode="layer"
     id="layer1"
     transform="translate(-119.24099,-53.569063)">
    <path
       style="fill:#073955;fill-opacity:1;stroke:none;stroke-width:3.05956697;stroke-miterlimit:4;stroke-dasharray:none"
       d="m 120.72462,54.627397 -0.005,49.391033 38.03075,29.3517 38.03075,-29.3517 -7.4e-4,-49.391033 z"
       id="path1099"
       inkscape:connector-curvature="0"
       sodipodi:nodetypes="cccccc" />
    <g
       id="g148"
       transform="matrix(0.98954626,0,0,0.98954626,1.6675231,-0.25395474)">
      <path
         id="path4824"
         d="m 157.82717,59.88376 -1.23341,0.20791 c -0.17269,0.0291 -0.29445,0.17971 -0.27098,0.3373 l 0.47822,3.20978 c -0.64622,0.14916 -1.27104,0.35775 -1.87703,0.60675 l -1.49842,-2.87459 c -0.0727,-0.13949 -0.25562,-0.17949 -0.40847,-0.0891 l -1.09194,0.64704 c -0.15286,0.0904 -0.21822,0.2742 -0.14546,0.41369 l 1.43865,2.75791 c -0.57116,0.34533 -1.11374,0.73524 -1.62594,1.1668 l -1.58212,-2.54151 c -0.0828,-0.13296 -0.26676,-0.15807 -0.41246,-0.0552 l -1.04212,0.73614 c -0.1457,0.10286 -0.19643,0.29346 -0.11358,0.42642 l 1.75147,2.80882 c -0.41658,0.4728 -0.80518,0.97403 -1.1557,1.50624 l -2.32932,-1.74596 c -0.12253,-0.0919 -0.3018,-0.044 -0.4025,0.10818 l -0.72131,1.08831 c -0.1007,0.15219 -0.0827,0.34726 0.0399,0.43915 l 2.45087,1.83718 c -0.26181,0.55707 -0.49036,1.13395 -0.67946,1.73112 l -2.54653,-1.07983 c -0.1392,-0.0591 -0.30383,0.0329 -0.36864,0.20578 l -0.46227,1.23682 c -0.0648,0.1729 -0.007,0.35879 0.13351,0.41792 l 2.77566,1.17954 c -0.0713,0.42873 -0.12482,0.86323 -0.1574,1.3047 h -2.70394 c -0.14987,0 -0.271,0.14906 -0.271,0.33519 v 0.1485 1.18379 0.1485 c 0,0.18597 0.121,0.33519 0.271,0.33519 h 2.70394 c 0.0323,0.44148 0.0861,0.87599 0.1574,1.3047 l -2.77566,1.17953 c -0.13727,0.0591 -0.19829,0.2451 -0.13351,0.41794 l 0.46227,1.23681 c 0.0648,0.17282 0.22944,0.2649 0.36864,0.20578 l 2.54653,-1.07983 c 0.18912,0.5972 0.41764,1.17408 0.67946,1.73112 l -2.45087,1.83719 c -0.12224,0.0918 -0.1405,0.28683 -0.0399,0.43914 l 0.72131,1.08832 c 0.1006,0.1523 0.27988,0.20014 0.4025,0.10818 l 2.32932,-1.74597 c 0.35051,0.53221 0.73912,1.03343 1.1557,1.50624 l -1.75147,2.80882 c -0.0826,0.13289 -0.0321,0.32337 0.11358,0.42642 l 1.04212,0.73614 c 0.14563,0.10308 0.32956,0.0779 0.41246,-0.0552 l 1.58212,-2.54151 c 0.51217,0.43155 1.05477,0.82155 1.62594,1.16681 l -1.43865,2.7579 c -0.0728,0.13946 -0.008,0.32337 0.14546,0.41369 l 1.09194,0.64704 c 0.15284,0.0903 0.3356,0.0505 0.40847,-0.0891 l 1.49842,-2.87459 c 0.60596,0.24878 1.23081,0.45772 1.87703,0.60675 l -0.47822,3.20978 c -0.0236,0.15764 0.0982,0.30857 0.27098,0.3373 l 1.23341,0.20791 c 0.17275,0.0291 0.33155,-0.0736 0.35468,-0.23124 l 0.48419,-3.25432 c 0.2818,0.0201 0.56235,0.0445 0.84885,0.0445 0.28649,0 0.56698,-0.024 0.84884,-0.0445 l 0.4842,3.25432 c 0.0232,0.15764 0.18194,0.25998 0.35468,0.23124 l 1.2334,-0.20791 c 0.17275,-0.0287 0.29413,-0.17966 0.271,-0.3373 l -0.47822,-3.20978 c 0.6462,-0.14903 1.27106,-0.35797 1.877,-0.60675 l 1.49842,2.87459 c 0.0731,0.13958 0.25579,0.17942 0.40848,0.0891 l 1.09195,-0.64704 c 0.15307,-0.0902 0.21833,-0.27411 0.14545,-0.41369 l -1.43864,-2.7579 c 0.57118,-0.34526 1.11377,-0.73526 1.62595,-1.16681 l 1.58211,2.54151 c 0.0828,0.13302 0.26671,0.15821 0.41247,0.0552 l 1.04211,-0.73614 c 0.14459,-0.10297 0.19609,-0.2934 0.11358,-0.42642 l -1.75148,-2.80882 c 0.41659,-0.47281 0.8052,-0.97403 1.15569,-1.50624 l 2.32934,1.74597 c 0.12258,0.092 0.30186,0.0441 0.4025,-0.10818 l 0.72131,-1.08832 c 0.1007,-0.15218 0.0824,-0.34718 -0.0399,-0.43914 l -2.45088,-1.83719 c 0.26181,-0.55701 0.49054,-1.13387 0.67948,-1.73112 l 2.54656,1.07983 c 0.13919,0.0591 0.30385,-0.0329 0.36862,-0.20578 l 0.46229,-1.23681 c 0.0648,-0.17284 0.004,-0.35882 -0.1335,-0.41794 l -2.7757,-1.17953 c 0.0713,-0.42868 0.12656,-0.86322 0.15742,-1.3047 h 2.70393 c 0.14999,0 0.271,-0.14922 0.271,-0.33519 v -0.1485 -1.18379 -0.1485 c 0,-0.18597 -0.12101,-0.33519 -0.271,-0.33519 h -2.70393 c -0.0323,-0.44148 -0.0861,-0.87598 -0.15742,-1.3047 l 2.77568,-1.17954 c 0.13727,-0.0591 0.19827,-0.24509 0.1335,-0.41792 l -0.46229,-1.23682 c -0.0648,-0.17282 -0.22943,-0.26489 -0.36862,-0.20578 l -2.54652,1.07983 c -0.18914,-0.59716 -0.41766,-1.17407 -0.67947,-1.73112 l 2.45088,-1.83718 c 0.12222,-0.0919 0.14049,-0.28684 0.0399,-0.43915 l -0.72132,-1.08831 c -0.10059,-0.1523 -0.27988,-0.20016 -0.4025,-0.10818 l -2.32934,1.74596 c -0.35053,-0.53221 -0.7391,-1.03348 -1.15569,-1.50624 l 1.75149,-2.80882 c 0.0826,-0.13289 0.0321,-0.32337 -0.11359,-0.42642 L 169.432,63.67054 c -0.14564,-0.10308 -0.32957,-0.0779 -0.41247,0.0552 l -1.58211,2.54151 c -0.51218,-0.43155 -1.05478,-0.82155 -1.62594,-1.1668 l 1.43863,-2.75791 c 0.0729,-0.13946 0.008,-0.32337 -0.14545,-0.41369 l -1.09194,-0.64704 c -0.15285,-0.0904 -0.33559,-0.0505 -0.40848,0.0891 l -1.49842,2.87459 c -0.60596,-0.2492 -1.23081,-0.45772 -1.87701,-0.60675 l 0.47822,-3.20978 c 0.0236,-0.15764 -0.0983,-0.30857 -0.271,-0.3373 l -1.23341,-0.20791 c -0.17273,-0.0291 -0.33154,0.0736 -0.35468,0.23124 l -0.4842,3.25433 c -0.28177,-0.0197 -0.56234,-0.0445 -0.84883,-0.0445 -0.28645,0 -0.56705,0.0248 -0.84884,0.0445 l -0.4842,-3.25433 c -0.0235,-0.1576 -0.18198,-0.26038 -0.35467,-0.23124 z m 1.68772,5.07667 c 6.22439,0 11.25211,5.35924 11.25211,11.98628 0,6.627 -5.02772,11.98627 -11.25211,11.98627 -6.2244,0 -11.25211,-5.35924 -11.25211,-11.98627 0,-6.62704 5.02771,-11.98628 11.25211,-11.98628 z"
         style="color:#000000;font-style:normal;font-variant:normal;font-weight:normal;font-stretch:normal;font-size:medium;line-height:normal;font-family:sans-serif;font-variant-ligatures:normal;font-variant-position:normal;font-variant-caps:normal;font-variant-numeric:normal;font-variant-alternates:normal;font-feature-settings:normal;text-indent:0;text-align:start;text-decoration:none;text-decoration-line:none;text-decoration-style:solid;text-decoration-color:#000000;letter-spacing:normal;word-spacing:normal;text-transform:none;writing-mode:lr-tb;direction:ltr;text-orientation:mixed;dominant-baseline:auto;baseline-shift:baseline;text-anchor:start;white-space:normal;shape-padding:0;clip-rule:nonzero;display:inline;overflow:visible;visibility:visible;opacity:1;isolation:auto;mix-blend-mode:normal;color-interpolation:sRGB;color-interpolation-filters:linearRGB;solid-color:#000000;solid-opacity:1;vector-effect:none;fill:#ffffff;fill-opacity:1;fill-rule:nonzero;stroke:none;stroke-width:1.59145212;stroke-linecap:butt;stroke-linejoin:miter;stroke-miterlimit:4;stroke-dasharray:none;stroke-dashoffset:0;stroke-opacity:1;color-rendering:auto;image-rendering:auto;shape-rendering:auto;text-rendering:auto;enable-background:accumulate"
         inkscape:connector-curvature="0" />
      <g
         style="fill:#ffffff;fill-opacity:1;stroke:#073955;stroke-opacity:1"
         id="g7238"
         inkscape:label="ink_ext_XXXXXX"
         transform="matrix(0.08339517,0,0,-0.08878927,150.20166,84.22511)">
        <g
           style="fill:#ffffff;fill-opacity:1;stroke:#073955;stroke-opacity:1"
           id="g7240"
           transform="scale(0.1)">
          <path
             d="m 1116.82,1312.56 -0.16,-808.845 h 72.66 l -0.74,791.245 -71.76,66.8 -71.77,-70.9 0.75,-786.856 70.86,-0.289 0.16,808.845"
             style="fill:#ffffff;fill-opacity:1;fill-rule:evenodd;stroke:#073955;stroke-opacity:1"
             id="path7242"
             inkscape:connector-curvature="0" />
          <g
             style="fill:#ffffff;fill-opacity:1;stroke:#073955;stroke-opacity:1"
             id="g7244"
             transform="matrix(0,-0.978863,-1.02114,0,0,0)">
            <path
               d="m -1340.9,-1093.7 826.308,0.15 v -71.16 l -808.328,0.74 -68.25,70.27 72.44,70.28 803.843,-0.73 0.295,-69.4 z"
               style="fill:#ffffff;fill-opacity:1;stroke:#073955;stroke-width:6.29831982;stroke-linecap:butt;stroke-linejoin:miter;stroke-miterlimit:22.92560005;stroke-dasharray:none;stroke-opacity:1"
               id="path7246"
               inkscape:connector-curvature="0" />
          </g>
          <path
             d="m 1214.16,466.223 147.67,30.773 V 341.074 l -147.67,26.672 v 98.477"
             style="fill:#ffffff;fill-opacity:1;fill-rule:evenodd;stroke:#073955;stroke-opacity:1"
             id="path7248"
             inkscape:connector-curvature="0" />
          <g
             style="fill:#ffffff;fill-opacity:1;stroke:#073955;stroke-opacity:1"
             id="g7250"
             transform="matrix(0,-0.978863,-1.02114,0,0,0)">
            <path
               d="m -476.29,-1189.02 -31.438,-144.62 h 159.289 l -27.248,144.62 z"
               style="fill:#ffffff;fill-opacity:1;stroke:#073955;stroke-width:6.29831982;stroke-linecap:butt;stroke-linejoin:miter;stroke-miterlimit:22.92560005;stroke-dasharray:none;stroke-opacity:1"
               id="path7252"
               inkscape:connector-curvature="0" />
          </g>
          <path
             d="m 1241.36,448.836 93.27,19.437 v -98.472 l -93.27,16.844 v 62.191"
             style="fill:#ffffff;fill-opacity:1;fill-rule:evenodd;stroke:#073955;stroke-opacity:1"
             id="path7254"
             inkscape:connector-curvature="0" />
          <g
             style="fill:#ffffff;fill-opacity:1;stroke:#073955;stroke-opacity:1"
             id="g7256"
             transform="matrix(0,-0.978863,-1.02114,0,0,0)">
            <path
               d="m -458.528,-1215.67 -19.857,-91.33 h 100.599 l -17.208,91.33 z"
               style="fill:#ffffff;fill-opacity:1;stroke:#073955;stroke-width:6.29770994;stroke-linecap:butt;stroke-linejoin:miter;stroke-miterlimit:22.92560005;stroke-dasharray:none;stroke-opacity:1"
               id="path7258"
               inkscape:connector-curvature="0" />
          </g>
          <path
             d="M 1036.59,466.223 888.918,496.996 V 341.074 l 147.672,26.672 v 98.477"
             style="fill:#ffffff;fill-opacity:1;fill-rule:evenodd;stroke:#073955;stroke-opacity:1"
             id="path7260"
             inkscape:connector-curvature="0" />
          <g
             style="fill:#ffffff;fill-opacity:1;stroke:#073955;stroke-opacity:1"
             id="g7262"
             transform="matrix(0,-0.978863,1.02114,0,0,0)">
            <path
               d="m -476.29,1015.13 -31.438,-144.612 h 159.289 l -27.248,144.612 z"
               style="fill:#ffffff;fill-opacity:1;stroke:#073955;stroke-width:6.29831982;stroke-linecap:butt;stroke-linejoin:miter;stroke-miterlimit:22.92560005;stroke-dasharray:none;stroke-opacity:1"
               id="path7264"
               inkscape:connector-curvature="0" />
          </g>
          <path
             d="m 1009.39,448.836 -93.269,19.437 v -98.472 l 93.269,16.844 v 62.191"
             style="fill:#ffffff;fill-opacity:1;fill-rule:evenodd;stroke:#073955;stroke-opacity:1"
             id="path7266"
             inkscape:connector-curvature="0" />
          <g
             style="fill:#ffffff;fill-opacity:1;stroke:#073955;stroke-opacity:1"
             id="g7268"
             transform="matrix(0,-0.978863,1.02114,0,0,0)">
            <path
               d="m -458.528,988.493 -19.857,-91.335 h 100.599 l -17.208,91.335 z"
               style="fill:#ffffff;fill-opacity:1;stroke:#073955;stroke-width:6.29770994;stroke-linecap:butt;stroke-linejoin:miter;stroke-miterlimit:22.92560005;stroke-dasharray:none;stroke-opacity:1"
               id="path7270"
               inkscape:connector-curvature="0" />
          </g>
          <path
             d="M 1214.19,492.879 H 1036.55 V 345.168 h 177.64 v 147.711"
             style="fill:#ffffff;fill-opacity:1;fill-rule:evenodd;stroke:#073955;stroke-opacity:1"
             id="path7272"
             inkscape:connector-curvature="0" />
          <g
             style="fill:#ffffff;fill-opacity:1;stroke:#073955;stroke-opacity:1"
             id="g7274"
             transform="scale(1.02168,0.978324)">
            <path
               d="M 1188.43,503.799 H 1014.56 V 352.816 h 173.87 z"
               style="fill:#ffffff;fill-opacity:1;stroke:#073955;stroke-width:6.30133009;stroke-linecap:butt;stroke-linejoin:miter;stroke-miterlimit:22.92560005;stroke-dasharray:none;stroke-opacity:1"
               id="path7276"
               inkscape:connector-curvature="0" />
          </g>
          <path
             d="M 1190.65,473.305 H 1060.1 V 364.746 h 130.55 v 108.559"
             style="fill:#ffffff;fill-opacity:1;fill-rule:evenodd;stroke:#073955;stroke-opacity:1"
             id="path7278"
             inkscape:connector-curvature="0" />
          <g
             style="fill:#ffffff;fill-opacity:1;stroke:#073955;stroke-opacity:1"
             id="g7280"
             transform="scale(1.02168,0.978324)">
            <path
               d="M 1165.39,483.791 H 1037.61 V 372.828 h 127.78 z"
               style="fill:#ffffff;fill-opacity:1;stroke:#073955;stroke-width:6.30133009;stroke-linecap:butt;stroke-linejoin:miter;stroke-miterlimit:22.92560005;stroke-dasharray:none;stroke-opacity:1"
               id="path7282"
               inkscape:connector-curvature="0" />
          </g>
          <path
             d="m 1125.37,464.109 -14.66,-30.5 -34.79,-3.941 25.73,-22.789 -6.84,-32.934 30.56,16.414 30.56,-16.414 -6.84,32.93 25.73,22.793 -34.79,3.941 -14.66,30.5"
             style="fill:#ffffff;fill-opacity:1;fill-rule:evenodd;stroke:#073955;stroke-opacity:1"
             id="path7284"
             inkscape:connector-curvature="0" />
          <g
             style="fill:#ffffff;fill-opacity:1;stroke:#073955;stroke-opacity:1"
             id="g7286"
             transform="scale(1.02168,0.978324)">
            <path
               d="m 1101.49,474.392 -14.34,-31.175 -34.06,-4.029 25.19,-23.294 -6.7,-33.663 29.91,16.777 29.92,-16.777 -6.7,33.659 25.18,23.298 -34.05,4.029 z"
               style="fill:#ffffff;fill-opacity:1;stroke:#073955;stroke-width:6.30133009;stroke-linecap:butt;stroke-linejoin:miter;stroke-miterlimit:22.92560005;stroke-dasharray:none;stroke-opacity:1"
               id="path7288"
               inkscape:connector-curvature="0" />
          </g>
          <path
             d="m 1035.34,85.3867 c 1.15,22.9493 9.57,36.1403 19.97,37.7773 l 122.72,28.754 c 11.78,2.527 21.88,-11.66 21.88,-32.039 0,-12.738 -3.95,-27.7462 -9.78,-35.8165 z m 19.97,38.8243 122.72,28.754 c 11.78,2.844 21.88,21.902 21.88,42.281 0,20.375 -10.1,34.563 -21.88,32.039 l -122.72,-28.754 c -11.07,-2.14 -21.16,-21.195 -21.16,-41.578 0,-20.375 10.09,-34.566 21.16,-32.742 z m 0,75.367 122.72,28.754 c 11.78,2.844 21.88,21.898 21.88,42.281 0,20.379 -10.1,34.567 -21.88,32.035 l -122.72,-28.75 c -11.07,-2.14 -21.16,-21.199 -21.16,-41.578 0,-20.375 10.09,-34.562 21.16,-32.742 z m 0,75.367 122.72,28.754 c 9.57,2.309 18.03,14.399 20.86,30.121 0.66,3.633 2.09,-2.82 2.09,1.004 l -159.58,0.492 c -5.53,-1.07 3.09,6.649 -0.82,-0.929 -3.9,-7.578 -6.43,-16.508 -6.43,-26.696 0,-20.382 10.09,-34.57 21.16,-32.746 z m 130.13,-214.7028 -132.54,-0.0664 140.8,-0.0625 16.87,-0.2695 c 11.19,0.0546 20.39,5.4414 20.39,12.0468 0,6.6094 -9.2,11.9922 -20.39,12.0469 H 1024.8 c -11.42,-0.0547 -20.63,-5.4375 -20.63,-12.0469 0,-6.6054 9.21,-11.9922 20.63,-12.0468 l 27.35,0.164 c 4.79,-28.125 32.51,-49.4453 66.42,-49.4453 33.92,0 62.17,21.7852 66.87,49.6797"
             style="fill:#ffffff;fill-opacity:1;fill-rule:evenodd;stroke:#073955;stroke-opacity:1"
             id="path7290"
             inkscape:connector-curvature="0" />
          <g
             style="fill:#ffffff;fill-opacity:1;stroke:#073955;stroke-opacity:1"
             id="g7292"
             transform="scale(-1.07011,0.929888)">
            <path
               d="m -967.506,91.8248 c -1.073,24.6792 -8.947,38.8652 -18.66,40.6252 l -114.674,30.922 c -11.02,2.718 -20.45,-12.539 -20.45,-34.454 0,-13.699 3.69,-29.8385 9.14,-38.5173 z m -18.66,41.7512 -114.674,30.922 c -11.02,3.058 -20.45,23.554 -20.45,45.469 0,21.912 9.43,37.169 20.45,34.455 L -986.166,213.5 c 10.341,-2.302 19.774,-22.793 19.774,-44.713 0,-21.911 -9.433,-37.172 -19.774,-35.211 z m 0,81.05 -114.674,30.922 c -11.02,3.058 -20.45,23.55 -20.45,45.469 0,21.916 9.43,37.173 20.45,34.451 l 114.674,-30.918 c 10.341,-2.302 19.774,-22.798 19.774,-44.713 0,-21.911 -9.433,-37.168 -19.774,-35.211 z m 0,81.05 -114.674,30.922 c -8.95,2.482 -16.86,15.484 -19.5,32.392 -0.61,3.907 -1.95,-3.033 -1.95,1.08 l 149.119,0.529 c 5.173,-1.151 -2.884,7.15 0.767,-1 3.646,-8.149 6.012,-17.752 6.012,-28.708 0,-21.92 -9.433,-37.177 -19.774,-35.215 z m -121.604,-230.8916 123.853,-0.0714 -131.573,-0.0672 -15.76,-0.2899 c -10.46,0.0588 -19.06,5.8517 -19.06,12.9552 0,7.1077 8.6,12.8964 19.06,12.9552 h 173.589 c 10.681,-0.0588 19.285,-5.8475 19.285,-12.9552 0,-7.1035 -8.604,-12.8964 -19.285,-12.9552 l -25.552,0.1764 c -4.479,-30.2456 -30.377,-53.1734 -62.067,-53.1734 -31.7,0 -58.1,23.4277 -62.49,53.4255 z"
               style="fill:#ffffff;fill-opacity:1;stroke:#073955;stroke-width:6.41343021;stroke-linecap:butt;stroke-linejoin:miter;stroke-miterlimit:22.92560005;stroke-dasharray:none;stroke-opacity:1"
               id="path7294"
               inkscape:connector-curvature="0" />
          </g>
          <path
             d="m 70.9063,1487.13 c 273.4457,-168.3 427.5667,-258.41 725.8667,-272.56 117.688,0.47 118.637,-73.62 84.52,-122.88 C 748.707,887.148 886.34,766.211 1045.36,747.637 l 1.16,-196.606 -38.45,-13.406 -29.828,29.043 -72.09,-13.406 -39.773,35.75 -72.09,-15.641 -39.773,37.981 -114.352,-8.934 -17.402,60.32 -116.832,8.934 -32.317,62.558 -149.152,-11.171 -69.602,42.449 32.317,51.383 -46.649,3.187 -65.214,52.668 27.343,46.918 -49.715,2.234 -47.23,67.024 24.855,58.088 -22.375,4.47 -54.6832,84.9 17.3985,56.02 -34.4141,9.97 -32.70704,65.82 39.77734,75.96 -37.28906,60.32 c 21.54686,27.56 43.08986,55.11 64.63286,82.66"
             style="fill:#ffffff;fill-opacity:1;fill-rule:evenodd;stroke:#073955;stroke-opacity:1"
             id="path7296"
             inkscape:connector-curvature="0" />
          <g
             style="fill:#ffffff;fill-opacity:1;stroke:#073955;stroke-opacity:1"
             id="g7298"
             transform="scale(1.05333,0.946673)">
            <path
               d="m 125.313,1529.58 c 95.275,-111.46 244.03,-226.56 458.892,-290.08 112.434,-31.83 111.882,-68.32 106.148,-166.55 C 673.257,849.996 829.321,733.181 990.073,730.849 M 40.7229,1421.59 C 172.982,1336.3 339.215,1268.12 578.657,1239.13 c 4.061,-8.99 6.097,-19.51 10.162,-28.52 -10.151,-12.78 -13.548,-21.22 -22.426,-35.28 -180.21,15.77 -353.111,38.74 -502.7072,85.21 m 501.4242,-86.29 6.03,-22.18 -1.179,-32.58 20.085,-30.68 -16.981,-37.27 -1.461,-42.97 40.437,-63.203 -11.856,-47.543 29.705,1.213 -5.804,-23.239 46.393,-8.711 -7.977,-32.68 7.977,-28.319 21.743,-19.608 42.763,-9.441 4.346,-28.319 24.647,-19.604 47.112,-5.083 1.45,-26.862 26.82,3.627 16.67,-18.156 39.862,6.536 11.597,-23.235 22.466,0.726 0.73,-18.878 23.197,5.08 23.916,-11.62 -21.023,-72.615 m 21.023,72.615 15.223,37.76 v 13.798 l -39.87,-41.391 -24.639,-53.006 m 0.723,67.531 37.686,66.078 M 858.922,585.34 l 48.567,81.329 m -85.529,-45.752 33.343,63.173 m 66.686,53.737 -27.547,-49.379 m -54.362,12.35 33.343,53.01 m -63.056,-30.497 33.34,44.291 m -88.426,-162.662 58.713,93.679 m -100.029,-53.011 67.406,81.33 m -18.116,0.722 50.739,56.641 M 737.889,748.72 607.417,635.441 m -18.116,65.357 106.544,84.23 m 36.97,-7.989 42.036,41.391 m -24.643,28.319 -79.729,-40.661 -191.354,-96.58 m -31.166,63.904 215.993,61.725 m 7.251,31.95 57.259,11.612 m -98.572,19.612 79.725,23.239 m -13.77,45.018 -84.078,-19.608 -276.876,6.54 -144.965,18.878 m 81.179,-110.379 123.941,11.62 11.597,22.509 194.25,2.909 M 625.536,875.072 388.527,823.518 243.566,808.267 m 208.016,-31.95 -73.928,45.022 16.669,51.558 12.32,22.513 -74.656,58.82 28.993,53 M 168.184,922.272 405.923,895.41 m 164.527,257.06 122.495,-23.24 m -103.644,-40.67 101.471,-11.61 m -118.141,-25.42 -275.437,23.24 -174.677,31.95 m -21.012,-63.18 260.206,-36.31 210.92,0.73 115.964,1.45 m -326.884,-1.45 -60.886,67.53 23.189,53.01 -47.836,83.51 m 293.553,-92.95 c -82.629,3.38 -165.258,6.77 -247.886,10.17 -90.591,19.78 -181.186,44.34 -271.8064,71.88 m 226.1394,7.27 23.92,45.02 -0.723,45.75 m 0.723,-45.02 c -99.295,22.05 -198.586,51.27 -297.89516,84.96 m 3.62319,144.49 C 148.377,1408.62 290.923,1344.08 433.463,1296.24"
               style="fill:#ffffff;fill-opacity:1;stroke:#073955;stroke-width:6.52421999;stroke-linecap:butt;stroke-linejoin:miter;stroke-miterlimit:22.92560005;stroke-dasharray:none;stroke-opacity:1"
               id="path7300"
               inkscape:connector-curvature="0" />
          </g>
          <path
             d="m 2163.88,1487.13 c -273.44,-168.3 -427.56,-258.41 -725.86,-272.56 -117.69,0.47 -118.64,-73.62 -84.52,-122.88 132.58,-204.542 -5.05,-325.479 -164.07,-344.053 l -1.16,-196.606 38.45,-13.406 29.83,29.043 72.09,-13.406 39.77,35.75 72.09,-15.641 39.77,37.981 114.36,-8.934 17.4,60.32 116.83,8.934 32.32,62.558 149.15,-11.171 69.6,42.449 -32.32,51.383 46.65,3.187 65.22,52.668 -27.35,46.918 49.72,2.234 47.23,67.024 -24.86,58.088 22.38,4.47 54.69,84.9 -17.41,56.02 34.42,9.97 32.7,65.82 -39.77,75.96 37.29,60.32 c -21.55,27.56 -43.09,55.11 -64.64,82.66"
             style="fill:#ffffff;fill-opacity:1;fill-rule:evenodd;stroke:#073955;stroke-opacity:1"
             id="path7302"
             inkscape:connector-curvature="0" />
          <g
             style="fill:#ffffff;fill-opacity:1;stroke:#073955;stroke-opacity:1"
             id="g7304"
             transform="scale(1.05333,0.946673)">
            <path
               d="m 2054.33,1570.91 c -259.6,-177.79 -405.92,-272.98 -689.12,-287.92 -111.73,0.5 -112.63,-77.77 -80.24,-129.8 125.88,-216.067 -4.79,-343.817 -155.76,-363.438 l -1.1,-207.68 36.5,-14.162 28.32,30.679 68.44,-14.161 37.76,37.764 68.44,-16.522 37.76,40.12 108.56,-9.437 16.52,63.718 110.92,9.437 30.68,66.083 141.6,-11.801 66.08,44.84 -30.68,54.277 44.29,3.367 61.91,55.635 -25.96,49.561 47.2,2.36 44.84,70.8 -23.6,61.36 21.24,4.72 51.92,89.68 -16.52,59.18 32.68,10.53 31.04,69.53 -37.76,80.24 35.4,63.71 c -20.45,29.12 -40.91,58.22 -61.36,87.33 z"
               style="fill:#ffffff;fill-opacity:1;stroke:#073955;stroke-width:6.52421999;stroke-linecap:butt;stroke-linejoin:miter;stroke-miterlimit:22.92560005;stroke-dasharray:none;stroke-opacity:1"
               id="path7306"
               inkscape:connector-curvature="0" />
          </g>
          <g
             style="fill:#ffffff;fill-opacity:1;stroke:#073955;stroke-opacity:1"
             id="g7308"
             transform="scale(-1.05333,0.946673)">
            <path
               d="m -1996.33,1529.58 c 95.27,-111.46 244.03,-226.56 458.89,-290.08 112.43,-31.83 111.88,-68.32 106.15,-166.55 -17.1,-222.954 138.96,-339.769 299.72,-342.101 m -949.35,690.741 c 132.26,-85.29 298.48,-153.47 537.93,-182.46 4.06,-8.99 6.1,-19.51 10.16,-28.52 -10.15,-12.78 -13.55,-21.22 -22.42,-35.28 -180.21,15.77 -353.11,38.74 -502.71,85.21 m 501.42,-86.29 6.03,-22.18 -1.18,-32.58 20.09,-30.68 -16.99,-37.27 -1.45,-42.97 40.43,-63.203 -11.85,-47.543 29.7,1.213 -5.8,-23.239 46.39,-8.711 -7.97,-32.68 7.97,-28.319 21.75,-19.608 42.76,-9.441 4.34,-28.319 24.65,-19.604 47.11,-5.083 1.45,-26.862 26.82,3.627 16.67,-18.156 39.86,6.536 11.6,-23.235 22.47,0.726 0.72,-18.878 23.2,5.08 23.92,-11.62 -21.02,-72.615 m 21.02,72.615 15.22,37.76 v 13.798 l -39.87,-41.391 -24.63,-53.006 m 0.71,67.531 37.69,66.078 m -107.99,-146.681 48.56,81.329 m -85.53,-45.752 33.35,63.173 m 66.68,53.737 -27.55,-49.379 m -54.36,12.35 33.35,53.01 m -63.06,-30.497 33.34,44.291 m -88.43,-162.662 58.71,93.679 m -100.03,-53.011 67.41,81.33 m -18.11,0.722 50.73,56.641 m -76.1,-35.581 -130.47,-113.279 m -18.12,65.357 106.55,84.23 m 36.96,-7.989 42.04,41.391 m -24.64,28.319 -79.73,-40.661 -191.35,-96.58 m -31.17,63.904 216,61.725 m 7.25,31.95 57.25,11.612 m -98.57,19.612 79.73,23.239 m -13.77,45.018 -84.08,-19.608 -276.88,6.54 -144.96,18.878 m 81.18,-110.379 123.94,11.62 11.6,22.509 194.25,2.909 m 24.64,-23.965 -237.01,-51.554 -144.96,-15.251 m 208.02,-31.95 -73.93,45.022 16.67,51.558 12.32,22.513 -74.66,58.82 28.99,53 m -192.79,-84.958 237.73,-26.862 m 164.53,257.06 122.5,-23.24 m -103.65,-40.67 101.48,-11.61 m -118.15,-25.42 -275.43,23.24 -174.68,31.95 m -21.01,-63.18 260.2,-36.31 210.92,0.73 115.97,1.45 m -326.89,-1.45 -60.88,67.53 23.19,53.01 -47.83,83.51 m 293.54,-92.95 c -82.63,3.38 -165.26,6.77 -247.89,10.17 -90.59,19.78 -181.18,44.34 -271.8,71.88 m 226.15,7.27 23.91,45.02 -0.72,45.75 m 0.72,-45.02 c -99.29,22.05 -198.59,51.27 -297.89,84.96 m 3.62,144.49 c 142.55,-74.96 285.1,-139.5 427.64,-187.34"
               style="fill:#ffffff;fill-opacity:1;stroke:#073955;stroke-width:6.52421999;stroke-linecap:butt;stroke-linejoin:miter;stroke-miterlimit:22.92560005;stroke-dasharray:none;stroke-opacity:1"
               id="path7310"
               inkscape:connector-curvature="0" />
          </g>
        </g>
      </g>
    </g>
    <path
       style="fill:#ffffff;fill-opacity:1;stroke:none;stroke-width:1.14827287;stroke-miterlimit:4;stroke-dasharray:none;stroke-opacity:1"
       d="m 123.55207,96.23958 v 6.45541 h 23.05166 l 12.14566,13.03435 12.14566,-13.03435 h 23.05164 v -6.45541 h -24.03114 l -11.16616,11.976 -11.16618,-11.976 z"
       id="path195"
       inkscape:connector-curvature="0" />
    <path
       inkscape:connector-curvature="0"
       id="path72"
       d="m 119.24099,53.569063 v 2.95899 l 7.3e-4,48.658787 39.50767,30.49271 39.51541,-30.49271 -7.3e-4,-48.658787 v -2.95899 z m 2.96054,2.95899 h 73.10355 l 7.3e-4,47.046997 -36.55539,28.20758 -36.54816,-28.20758 z"
       style="color:#000000;font-style:normal;font-variant:normal;font-weight:normal;font-stretch:normal;font-size:medium;line-height:normal;font-family:sans-serif;font-variant-ligatures:normal;font-variant-position:normal;font-variant-caps:normal;font-variant-numeric:normal;font-variant-alternates:normal;font-feature-settings:normal;text-indent:0;text-align:start;text-decoration:none;text-decoration-line:none;text-decoration-style:solid;text-decoration-color:#000000;letter-spacing:normal;word-spacing:normal;text-transform:none;writing-mode:lr-tb;direction:ltr;text-orientation:mixed;dominant-baseline:auto;baseline-shift:baseline;text-anchor:start;white-space:normal;shape-padding:0;clip-rule:nonzero;display:inline;overflow:visible;visibility:visible;opacity:1;isolation:auto;mix-blend-mode:normal;color-interpolation:sRGB;color-interpolation-filters:linearRGB;solid-color:#000000;solid-opacity:1;vector-effect:none;fill:#0f2b3b;fill-opacity:1;fill-rule:nonzero;stroke:none;stroke-width:0.1;stroke-linecap:butt;stroke-linejoin:miter;stroke-miterlimit:4;stroke-dasharray:none;stroke-dashoffset:0;stroke-opacity:1;color-rendering:auto;image-rendering:auto;shape-rendering:auto;text-rendering:auto;enable-background:accumulate"
       sodipodi:nodetypes="cccccccccccccc" />
  </g>
</svg>
